<svg width="91" height="91" viewBox="0 0 91 91" fill="none" xmlns="http://www.w3.org/2000/svg">
<rect width="91" height="91" fill="#545252"/>
<path d="M67.0783 65.5096L66.9443 65.2761L67.0355 65.2382L67.1654 65.4645L75.1455 60.8827L75.3285 60.1972L75.0258 59.6781L74.3449 59.4964L67.4164 63.475V41.4787L67.1622 41.0433L57.5406 35.6119V26.4474L65.7655 31.11L66.4458 30.9239L67.0436 29.8819L66.8565 29.198L46.6848 17.7669V9L46.1848 8.5H45.5794L45.0794 9V17.7669L24.9077 29.198L24.7205 29.8819L25.3183 30.9239L25.9985 31.1101L45.0794 20.2968V29.1979L24.5963 41.3534L24.3515 41.7834V51.7559L17.5539 47.8062L16.8708 47.9867L16.5681 48.5058L16.7489 49.19L24.3553 53.6084V65.5274L24.6081 65.962L43.9357 76.9537L36.8017 81.0472L36.6186 81.7327L36.9213 82.2519L37.6022 82.4336L55.8926 71.9317L64.0014 76.643L64.6845 76.4626L64.9872 75.9435L64.8065 75.2593L57.4954 71.0109L67.0783 65.5096ZM46.6886 29.4841V20.2969L55.3336 25.197V34.3664L46.6886 29.4841ZM55.8993 70.0885L47.7264 65.3405L57.2779 60.1895L57.5406 59.7494V38.1409L65.2094 42.4703V64.7414L55.8993 70.0885ZM46.6886 63.3959V32.0131L55.3336 36.8954V58.7362L46.6886 63.3959ZM45.0869 31.7639V63.8047L36.8165 58.999V38.6386L36.3165 38.1386H35.1095L34.6095 38.6386V57.7182L26.5661 53.0442V42.7565L45.0869 31.7639ZM26.5661 64.5406V54.8929L34.6095 59.5669V69.1143L26.5661 64.5406ZM36.8127 70.3713V60.8515L54.2929 71.0094L46.1527 75.6841L36.8127 70.3713Z" fill="white" stroke="white" stroke-linejoin="bevel"/>
</svg>
