<svg width="91" height="91" viewBox="0 0 91 91" fill="none" xmlns="http://www.w3.org/2000/svg">
<rect width="91" height="91" fill="#545252"/>
<path d="M66.9164 65.0798V65.0309L74.8966 60.4491L74.5938 59.93L66.9164 64.3387V41.4787L57.0406 35.9038V25.5892L66.0121 30.675L66.6099 29.6331L46.1848 18.0582V9H45.5794V18.0582L25.1542 29.6331L25.752 30.675L45.5794 19.4388V29.4826L24.8515 41.7834V52.6247L17.3027 48.2385L17 48.7577L24.8553 53.3206V65.5274L44.9437 76.9518L37.0506 81.4809L37.3533 82L55.8941 71.3543L64.2526 76.2107L64.5553 75.6916L56.4957 71.0082L66.8294 65.076H66.9126L66.9164 65.0798ZM56.2763 25.1566H55.8336V35.223L46.1886 29.776V19.4388L56.2763 25.1566ZM46.1886 31.1566L55.8336 36.6035V59.0347L46.1886 64.2334V31.1566ZM26.0661 42.4718L45.5869 30.8857V64.6735L36.3165 59.2867V38.6386H35.1095V58.587L26.0661 53.3319V42.4718ZM26.0661 54.0241L35.1095 59.2792V69.9738L26.0661 64.8315V54.0241ZM45.7194 76.5079L45.935 76.1355L36.3127 70.6622V59.9826L55.2925 71.012L45.7156 76.5116L45.7194 76.5079ZM46.7032 65.3243L57.0406 59.7494V37.2844L65.7094 42.1784V65.0309L55.8979 70.6659L46.7032 65.3243Z" fill="white"/>
</svg>
